<mxfile host="Electron" agent="Mozilla/5.0 (Macintosh; Intel Mac OS X 10_15_7) AppleWebKit/537.36 (KHTML, like Gecko) draw.io/26.2.2 Chrome/134.0.6998.178 Electron/35.1.2 Safari/537.36" version="26.2.2" pages="8">
  <diagram id="7c8VaFbdcljvnj-HGx5j" name="symbols">
    <mxGraphModel dx="3840" dy="923" grid="1" gridSize="10" guides="1" tooltips="1" connect="1" arrows="1" fold="1" page="0" pageScale="1" pageWidth="850" pageHeight="1100" math="0" shadow="0">
      <root>
        <mxCell id="0" />
        <mxCell id="1" parent="0" />
        <mxCell id="srHOaSE6Z8lUIBzCexzn-1" style="edgeStyle=none;rounded=0;orthogonalLoop=1;jettySize=auto;html=1;exitX=1;exitY=1;exitDx=0;exitDy=0;entryX=0.5;entryY=0;entryDx=0;entryDy=0;entryPerimeter=0;strokeColor=#0000FF;strokeWidth=3;" parent="1" edge="1">
          <mxGeometry relative="1" as="geometry">
            <mxPoint x="-1078.75" y="1440" as="sourcePoint" />
            <mxPoint x="-1021.25" y="1490" as="targetPoint" />
          </mxGeometry>
        </mxCell>
        <mxCell id="srHOaSE6Z8lUIBzCexzn-2" style="edgeStyle=none;rounded=0;orthogonalLoop=1;jettySize=auto;html=1;entryX=0.5;entryY=0;entryDx=0;entryDy=0;entryPerimeter=0;strokeColor=#FF8000;strokeWidth=3;dashed=1;" parent="1" edge="1">
          <mxGeometry relative="1" as="geometry">
            <mxPoint x="-1020" y="1540" as="sourcePoint" />
            <mxPoint x="-1080" y="1590" as="targetPoint" />
          </mxGeometry>
        </mxCell>
        <mxCell id="PLz4i0f56Uwka3e5rVQV-1" value="reviewed&lt;br&gt;element&lt;br&gt;design" style="shape=note;whiteSpace=wrap;html=1;backgroundOutline=1;darkOpacity=0.05;fillColor=#d5e8d4;strokeColor=#000000;" parent="1" vertex="1">
          <mxGeometry x="-1080" y="1140" width="80" height="100" as="geometry" />
        </mxCell>
        <mxCell id="UoZN9K3jkQOQZG8QfM3r-1" value="requirements&lt;br&gt;gate" style="rhombus;whiteSpace=wrap;html=1;fillColor=default;" parent="1" vertex="1">
          <mxGeometry x="-1080" y="1320" width="110" height="80" as="geometry" />
        </mxCell>
        <mxCell id="jifr4nX1medPiPfTltps-1" value="attack&lt;br&gt;surface&lt;br&gt;analysis&lt;br&gt;report" style="shape=note;whiteSpace=wrap;html=1;backgroundOutline=1;darkOpacity=0.05;fillColor=#fff2cc;strokeColor=#000000;" parent="1" vertex="1">
          <mxGeometry x="-1080" y="980" width="80" height="100" as="geometry" />
        </mxCell>
      </root>
    </mxGraphModel>
  </diagram>
  <diagram id="Oz4VHGN1nNMEp_QaT7qJ" name="full view">
    <mxGraphModel dx="3800" dy="2086" grid="1" gridSize="10" guides="1" tooltips="1" connect="1" arrows="1" fold="1" page="0" pageScale="1" pageWidth="850" pageHeight="1100" math="0" shadow="0">
      <root>
        <mxCell id="0" />
        <mxCell id="1" value="overall flow" style="" parent="0" />
        <mxCell id="3KLiM-ANREKH_K_7CY9G-135" value="" style="rounded=0;whiteSpace=wrap;html=1;labelBackgroundColor=none;fillColor=#E6FFCC;strokeColor=#000000;strokeWidth=2;" parent="1" vertex="1">
          <mxGeometry x="-170" y="110" width="880" height="320" as="geometry" />
        </mxCell>
        <mxCell id="3KLiM-ANREKH_K_7CY9G-136" value="" style="rounded=0;whiteSpace=wrap;html=1;labelBackgroundColor=none;fillColor=#CCE5FF;strokeColor=#000000;strokeWidth=2;" parent="1" vertex="1">
          <mxGeometry x="-170" y="430" width="880" height="1140" as="geometry" />
        </mxCell>
        <mxCell id="3KLiM-ANREKH_K_7CY9G-137" style="rounded=0;orthogonalLoop=1;jettySize=auto;html=1;entryX=0.5;entryY=0;entryDx=0;entryDy=0;entryPerimeter=0;endArrow=classicThin;endFill=1;strokeColor=#0000FF;strokeWidth=3;exitX=0.5;exitY=1;exitDx=0;exitDy=0;exitPerimeter=0;" parent="1" source="3KLiM-ANREKH_K_7CY9G-138" target="3KLiM-ANREKH_K_7CY9G-140" edge="1">
          <mxGeometry relative="1" as="geometry" />
        </mxCell>
        <mxCell id="3KLiM-ANREKH_K_7CY9G-138" value="organizational&lt;br&gt;cybersecurity&lt;br&gt;policy" style="shape=note;whiteSpace=wrap;html=1;backgroundOutline=1;darkOpacity=0.05;fillColor=#fff2cc;strokeColor=#000000;" parent="1" vertex="1">
          <mxGeometry x="-1010" y="-250" width="80" height="100" as="geometry" />
        </mxCell>
        <mxCell id="3KLiM-ANREKH_K_7CY9G-139" style="rounded=0;orthogonalLoop=1;jettySize=auto;html=1;entryX=0.5;entryY=0;entryDx=0;entryDy=0;entryPerimeter=0;endArrow=classicThin;endFill=1;strokeColor=#0000FF;strokeWidth=3;exitX=0.5;exitY=1;exitDx=0;exitDy=0;exitPerimeter=0;" parent="1" source="3KLiM-ANREKH_K_7CY9G-140" target="3KLiM-ANREKH_K_7CY9G-142" edge="1">
          <mxGeometry relative="1" as="geometry" />
        </mxCell>
        <mxCell id="3KLiM-ANREKH_K_7CY9G-140" value="global&lt;br&gt;cybersecurity&lt;br&gt;goals" style="shape=note;whiteSpace=wrap;html=1;backgroundOutline=1;darkOpacity=0.05;fillColor=#fff2cc;strokeColor=#000000;" parent="1" vertex="1">
          <mxGeometry x="-970" y="-90" width="80" height="100" as="geometry" />
        </mxCell>
        <mxCell id="3KLiM-ANREKH_K_7CY9G-142" value="element-level&lt;br&gt;cybersecurity&lt;br&gt;goals" style="shape=note;whiteSpace=wrap;html=1;backgroundOutline=1;darkOpacity=0.05;fillColor=#fff2cc;strokeColor=#000000;" parent="1" vertex="1">
          <mxGeometry x="-930" y="70" width="80" height="100" as="geometry" />
        </mxCell>
        <mxCell id="3KLiM-ANREKH_K_7CY9G-144" style="rounded=0;orthogonalLoop=1;jettySize=auto;html=1;entryX=0.5;entryY=0;entryDx=0;entryDy=0;endArrow=classicThin;endFill=1;strokeColor=#0000FF;strokeWidth=3;entryPerimeter=0;exitX=0.5;exitY=1;exitDx=0;exitDy=0;exitPerimeter=0;" parent="1" source="3KLiM-ANREKH_K_7CY9G-145" target="oeh-qcFCU3SFjLL-q-SD-1" edge="1">
          <mxGeometry relative="1" as="geometry" />
        </mxCell>
        <mxCell id="3KLiM-ANREKH_K_7CY9G-145" value="element-level&lt;br&gt;cybersecurity&lt;br&gt;requirements" style="shape=note;whiteSpace=wrap;html=1;backgroundOutline=1;darkOpacity=0.05;fillColor=#fff2cc;strokeColor=#000000;" parent="1" vertex="1">
          <mxGeometry x="-890" y="230" width="80" height="100" as="geometry" />
        </mxCell>
        <mxCell id="3KLiM-ANREKH_K_7CY9G-217" style="rounded=0;orthogonalLoop=1;jettySize=auto;html=1;entryX=0.5;entryY=0;entryDx=0;entryDy=0;entryPerimeter=0;endArrow=classicThin;endFill=1;strokeColor=#0000FF;strokeWidth=3;exitX=0.5;exitY=1;exitDx=0;exitDy=0;exitPerimeter=0;" parent="1" source="3KLiM-ANREKH_K_7CY9G-142" target="3KLiM-ANREKH_K_7CY9G-145" edge="1">
          <mxGeometry relative="1" as="geometry" />
        </mxCell>
        <mxCell id="3KLiM-ANREKH_K_7CY9G-255" value="&lt;b&gt;Verification&lt;/b&gt;" style="text;html=1;strokeColor=none;fillColor=none;align=left;verticalAlign=middle;whiteSpace=wrap;rounded=0;labelBackgroundColor=none;spacingLeft=5;" parent="1" vertex="1">
          <mxGeometry x="-170" y="430" width="80" height="30" as="geometry" />
        </mxCell>
        <mxCell id="3KLiM-ANREKH_K_7CY9G-256" value="&lt;b&gt;Validation&lt;/b&gt;" style="text;html=1;strokeColor=none;fillColor=none;align=left;verticalAlign=middle;whiteSpace=wrap;rounded=0;labelBackgroundColor=none;spacingLeft=5;" parent="1" vertex="1">
          <mxGeometry x="-170" y="400" width="70" height="30" as="geometry" />
        </mxCell>
        <mxCell id="oeh-qcFCU3SFjLL-q-SD-3" value="" style="group" parent="1" vertex="1" connectable="0">
          <mxGeometry x="-810" y="560" width="80" height="100" as="geometry" />
        </mxCell>
        <mxCell id="oeh-qcFCU3SFjLL-q-SD-1" value="element&lt;br&gt;functional&lt;br&gt;requirements&lt;br&gt;&lt;br&gt;&lt;br&gt;" style="shape=note;whiteSpace=wrap;html=1;backgroundOutline=1;darkOpacity=0.05;fillColor=#d5e8d4;strokeColor=#000000;" parent="oeh-qcFCU3SFjLL-q-SD-3" vertex="1">
          <mxGeometry width="80" height="100" as="geometry" />
        </mxCell>
        <mxCell id="oeh-qcFCU3SFjLL-q-SD-2" value="cybersecurity&lt;br&gt;dependencies" style="rounded=0;whiteSpace=wrap;html=1;fillColor=#fff2cc;strokeColor=#000000;" parent="oeh-qcFCU3SFjLL-q-SD-3" vertex="1">
          <mxGeometry y="60" width="80" height="40" as="geometry" />
        </mxCell>
        <mxCell id="oeh-qcFCU3SFjLL-q-SD-16" style="edgeStyle=none;rounded=0;orthogonalLoop=1;jettySize=auto;html=1;exitX=1;exitY=1;exitDx=0;exitDy=0;entryX=0.5;entryY=0;entryDx=0;entryDy=0;entryPerimeter=0;strokeColor=#0000FF;strokeWidth=3;" parent="1" source="oeh-qcFCU3SFjLL-q-SD-4" target="oeh-qcFCU3SFjLL-q-SD-6" edge="1">
          <mxGeometry relative="1" as="geometry" />
        </mxCell>
        <mxCell id="oeh-qcFCU3SFjLL-q-SD-18" style="edgeStyle=none;rounded=0;orthogonalLoop=1;jettySize=auto;html=1;exitX=0.5;exitY=1;exitDx=0;exitDy=0;entryX=0.5;entryY=0;entryDx=0;entryDy=0;entryPerimeter=0;strokeColor=#0000FF;strokeWidth=3;exitPerimeter=0;" parent="1" source="oeh-qcFCU3SFjLL-q-SD-6" target="oeh-qcFCU3SFjLL-q-SD-15" edge="1">
          <mxGeometry relative="1" as="geometry" />
        </mxCell>
        <mxCell id="oeh-qcFCU3SFjLL-q-SD-4" value="requirements&lt;br&gt;gate" style="rhombus;whiteSpace=wrap;html=1;fillColor=default;" parent="1" vertex="1">
          <mxGeometry x="-740" y="720" width="110" height="80" as="geometry" />
        </mxCell>
        <mxCell id="oeh-qcFCU3SFjLL-q-SD-5" style="rounded=0;orthogonalLoop=1;jettySize=auto;html=1;entryX=0;entryY=0;entryDx=0;entryDy=0;strokeColor=#0000FF;strokeWidth=3;exitX=0.5;exitY=1;exitDx=0;exitDy=0;" parent="1" source="oeh-qcFCU3SFjLL-q-SD-2" target="oeh-qcFCU3SFjLL-q-SD-4" edge="1">
          <mxGeometry relative="1" as="geometry" />
        </mxCell>
        <mxCell id="oeh-qcFCU3SFjLL-q-SD-19" style="edgeStyle=none;rounded=0;orthogonalLoop=1;jettySize=auto;html=1;exitX=0.5;exitY=1;exitDx=0;exitDy=0;exitPerimeter=0;entryX=0.5;entryY=0;entryDx=0;entryDy=0;strokeColor=#0000FF;strokeWidth=3;entryPerimeter=0;" parent="1" source="oeh-qcFCU3SFjLL-q-SD-6" target="oeh-qcFCU3SFjLL-q-SD-14" edge="1">
          <mxGeometry relative="1" as="geometry" />
        </mxCell>
        <mxCell id="oeh-qcFCU3SFjLL-q-SD-6" value="reviewed&lt;br&gt;element&lt;br&gt;design" style="shape=note;whiteSpace=wrap;html=1;backgroundOutline=1;darkOpacity=0.05;fillColor=#d5e8d4;strokeColor=#000000;" parent="1" vertex="1">
          <mxGeometry x="-640" y="830" width="80" height="100" as="geometry" />
        </mxCell>
        <mxCell id="oeh-qcFCU3SFjLL-q-SD-8" style="edgeStyle=none;rounded=0;orthogonalLoop=1;jettySize=auto;html=1;entryX=0;entryY=0;entryDx=25;entryDy=0;entryPerimeter=0;strokeColor=#0000FF;strokeWidth=3;exitX=0.5;exitY=1;exitDx=0;exitDy=0;exitPerimeter=0;" parent="1" source="oeh-qcFCU3SFjLL-q-SD-7" target="3KLiM-ANREKH_K_7CY9G-142" edge="1">
          <mxGeometry relative="1" as="geometry" />
        </mxCell>
        <mxCell id="oeh-qcFCU3SFjLL-q-SD-7" value="global&lt;br&gt;cybersecurity&lt;br&gt;requirements" style="shape=note;whiteSpace=wrap;html=1;backgroundOutline=1;darkOpacity=0.05;fillColor=#fff2cc;strokeColor=#000000;" parent="1" vertex="1">
          <mxGeometry x="-1090" y="-90" width="80" height="100" as="geometry" />
        </mxCell>
        <mxCell id="oeh-qcFCU3SFjLL-q-SD-22" style="edgeStyle=none;rounded=0;orthogonalLoop=1;jettySize=auto;html=1;exitX=1;exitY=1;exitDx=0;exitDy=0;entryX=0.5;entryY=0;entryDx=0;entryDy=0;entryPerimeter=0;strokeColor=#0000FF;strokeWidth=3;" parent="1" source="oeh-qcFCU3SFjLL-q-SD-9" target="oeh-qcFCU3SFjLL-q-SD-10" edge="1">
          <mxGeometry relative="1" as="geometry" />
        </mxCell>
        <mxCell id="oeh-qcFCU3SFjLL-q-SD-9" value="design&lt;br&gt;gate" style="rhombus;whiteSpace=wrap;html=1;fillColor=default;" parent="1" vertex="1">
          <mxGeometry x="-360" y="1510" width="110" height="80" as="geometry" />
        </mxCell>
        <mxCell id="oeh-qcFCU3SFjLL-q-SD-39" style="edgeStyle=none;rounded=0;orthogonalLoop=1;jettySize=auto;html=1;exitX=0.5;exitY=0;exitDx=0;exitDy=0;exitPerimeter=0;entryX=0.5;entryY=1;entryDx=0;entryDy=0;entryPerimeter=0;strokeColor=#0000FF;strokeWidth=3;" parent="1" source="oeh-qcFCU3SFjLL-q-SD-10" target="oeh-qcFCU3SFjLL-q-SD-26" edge="1">
          <mxGeometry relative="1" as="geometry" />
        </mxCell>
        <mxCell id="oeh-qcFCU3SFjLL-q-SD-40" style="edgeStyle=none;rounded=0;orthogonalLoop=1;jettySize=auto;html=1;exitX=0.5;exitY=0;exitDx=0;exitDy=0;exitPerimeter=0;entryX=0.5;entryY=1;entryDx=0;entryDy=0;entryPerimeter=0;strokeColor=#0000FF;strokeWidth=3;" parent="1" source="oeh-qcFCU3SFjLL-q-SD-10" target="oeh-qcFCU3SFjLL-q-SD-27" edge="1">
          <mxGeometry relative="1" as="geometry" />
        </mxCell>
        <mxCell id="oeh-qcFCU3SFjLL-q-SD-41" style="edgeStyle=none;rounded=0;orthogonalLoop=1;jettySize=auto;html=1;exitX=0.5;exitY=0;exitDx=0;exitDy=0;exitPerimeter=0;entryX=0.5;entryY=1;entryDx=0;entryDy=0;entryPerimeter=0;strokeColor=#0000FF;strokeWidth=3;" parent="1" source="oeh-qcFCU3SFjLL-q-SD-10" target="oeh-qcFCU3SFjLL-q-SD-28" edge="1">
          <mxGeometry relative="1" as="geometry" />
        </mxCell>
        <mxCell id="oeh-qcFCU3SFjLL-q-SD-42" style="edgeStyle=none;rounded=0;orthogonalLoop=1;jettySize=auto;html=1;exitX=0.5;exitY=0;exitDx=0;exitDy=0;exitPerimeter=0;entryX=0.5;entryY=1;entryDx=0;entryDy=0;entryPerimeter=0;strokeColor=#0000FF;strokeWidth=3;" parent="1" source="oeh-qcFCU3SFjLL-q-SD-10" target="oeh-qcFCU3SFjLL-q-SD-29" edge="1">
          <mxGeometry relative="1" as="geometry" />
        </mxCell>
        <mxCell id="oeh-qcFCU3SFjLL-q-SD-10" value="implemented&lt;br&gt;element" style="shape=note;whiteSpace=wrap;html=1;backgroundOutline=1;darkOpacity=0.05;fillColor=#d5e8d4;strokeColor=#000000;" parent="1" vertex="1">
          <mxGeometry x="-190" y="1670" width="80" height="100" as="geometry" />
        </mxCell>
        <mxCell id="oeh-qcFCU3SFjLL-q-SD-31" style="edgeStyle=none;rounded=0;orthogonalLoop=1;jettySize=auto;html=1;exitX=0.5;exitY=0;exitDx=0;exitDy=0;entryX=0.5;entryY=1;entryDx=0;entryDy=0;entryPerimeter=0;strokeColor=#0000FF;strokeWidth=3;exitPerimeter=0;" parent="1" source="oeh-qcFCU3SFjLL-q-SD-58" target="oeh-qcFCU3SFjLL-q-SD-25" edge="1">
          <mxGeometry relative="1" as="geometry" />
        </mxCell>
        <mxCell id="oeh-qcFCU3SFjLL-q-SD-32" style="edgeStyle=none;rounded=0;orthogonalLoop=1;jettySize=auto;html=1;exitX=0.5;exitY=0;exitDx=0;exitDy=0;entryX=0.5;entryY=1;entryDx=0;entryDy=0;entryPerimeter=0;strokeColor=#0000FF;strokeWidth=3;exitPerimeter=0;" parent="1" source="oeh-qcFCU3SFjLL-q-SD-58" target="oeh-qcFCU3SFjLL-q-SD-23" edge="1">
          <mxGeometry relative="1" as="geometry" />
        </mxCell>
        <mxCell id="oeh-qcFCU3SFjLL-q-SD-33" style="edgeStyle=none;rounded=0;orthogonalLoop=1;jettySize=auto;html=1;exitX=0.5;exitY=0;exitDx=0;exitDy=0;entryX=0.5;entryY=1;entryDx=0;entryDy=0;entryPerimeter=0;strokeColor=#0000FF;strokeWidth=3;exitPerimeter=0;" parent="1" source="oeh-qcFCU3SFjLL-q-SD-58" target="oeh-qcFCU3SFjLL-q-SD-24" edge="1">
          <mxGeometry relative="1" as="geometry" />
        </mxCell>
        <mxCell id="oeh-qcFCU3SFjLL-q-SD-59" style="edgeStyle=none;rounded=0;orthogonalLoop=1;jettySize=auto;html=1;exitX=1;exitY=0;exitDx=0;exitDy=0;entryX=0.5;entryY=1;entryDx=0;entryDy=0;entryPerimeter=0;strokeColor=#0000FF;strokeWidth=3;" parent="1" source="oeh-qcFCU3SFjLL-q-SD-11" target="oeh-qcFCU3SFjLL-q-SD-58" edge="1">
          <mxGeometry relative="1" as="geometry" />
        </mxCell>
        <mxCell id="oeh-qcFCU3SFjLL-q-SD-11" value="implementation&lt;br&gt;gate" style="rhombus;whiteSpace=wrap;html=1;fillColor=default;" parent="1" vertex="1">
          <mxGeometry x="200" y="1270" width="110" height="80" as="geometry" />
        </mxCell>
        <mxCell id="oeh-qcFCU3SFjLL-q-SD-37" style="edgeStyle=none;rounded=0;orthogonalLoop=1;jettySize=auto;html=1;exitX=1;exitY=0;exitDx=0;exitDy=0;entryX=0.5;entryY=1;entryDx=0;entryDy=0;entryPerimeter=0;strokeColor=#0000FF;strokeWidth=3;" parent="1" source="oeh-qcFCU3SFjLL-q-SD-12" target="oeh-qcFCU3SFjLL-q-SD-30" edge="1">
          <mxGeometry relative="1" as="geometry" />
        </mxCell>
        <mxCell id="oeh-qcFCU3SFjLL-q-SD-12" value="verification&lt;br&gt;gate" style="rhombus;whiteSpace=wrap;html=1;fillColor=default;" parent="1" vertex="1">
          <mxGeometry x="450" y="390" width="110" height="80" as="geometry" />
        </mxCell>
        <mxCell id="oeh-qcFCU3SFjLL-q-SD-13" value="release&lt;br&gt;gate" style="rhombus;whiteSpace=wrap;html=1;fillColor=default;" parent="1" vertex="1">
          <mxGeometry x="575" y="70" width="110" height="80" as="geometry" />
        </mxCell>
        <mxCell id="oeh-qcFCU3SFjLL-q-SD-20" style="edgeStyle=none;rounded=0;orthogonalLoop=1;jettySize=auto;html=1;strokeColor=#0000FF;strokeWidth=3;exitX=0.5;exitY=1;exitDx=0;exitDy=0;exitPerimeter=0;entryX=0;entryY=0;entryDx=0;entryDy=0;" parent="1" source="oeh-qcFCU3SFjLL-q-SD-14" target="oeh-qcFCU3SFjLL-q-SD-9" edge="1">
          <mxGeometry relative="1" as="geometry">
            <mxPoint x="-320" y="1660" as="targetPoint" />
          </mxGeometry>
        </mxCell>
        <mxCell id="oeh-qcFCU3SFjLL-q-SD-14" value="attack&lt;br&gt;surface&lt;br&gt;analysis&lt;br&gt;report" style="shape=note;whiteSpace=wrap;html=1;backgroundOutline=1;darkOpacity=0.05;fillColor=#fff2cc;strokeColor=#000000;" parent="1" vertex="1">
          <mxGeometry x="-520" y="1310" width="80" height="100" as="geometry" />
        </mxCell>
        <mxCell id="oeh-qcFCU3SFjLL-q-SD-21" style="edgeStyle=none;rounded=0;orthogonalLoop=1;jettySize=auto;html=1;strokeColor=#0000FF;strokeWidth=3;exitX=0.5;exitY=1;exitDx=0;exitDy=0;exitPerimeter=0;entryX=0;entryY=0;entryDx=0;entryDy=0;" parent="1" source="oeh-qcFCU3SFjLL-q-SD-15" target="oeh-qcFCU3SFjLL-q-SD-9" edge="1">
          <mxGeometry relative="1" as="geometry">
            <mxPoint x="-320" y="1660" as="targetPoint" />
          </mxGeometry>
        </mxCell>
        <mxCell id="oeh-qcFCU3SFjLL-q-SD-15" value="threat&lt;br&gt;modeling&lt;br&gt;report" style="shape=note;whiteSpace=wrap;html=1;backgroundOutline=1;darkOpacity=0.05;fillColor=#fff2cc;strokeColor=#000000;" parent="1" vertex="1">
          <mxGeometry x="-460" y="1110" width="80" height="100" as="geometry" />
        </mxCell>
        <mxCell id="oeh-qcFCU3SFjLL-q-SD-35" style="edgeStyle=none;rounded=0;orthogonalLoop=1;jettySize=auto;html=1;exitX=0.5;exitY=0;exitDx=0;exitDy=0;exitPerimeter=0;strokeColor=#0000FF;strokeWidth=3;entryX=0;entryY=1;entryDx=0;entryDy=0;" parent="1" source="oeh-qcFCU3SFjLL-q-SD-23" target="oeh-qcFCU3SFjLL-q-SD-12" edge="1">
          <mxGeometry relative="1" as="geometry">
            <mxPoint x="500" y="1090" as="targetPoint" />
          </mxGeometry>
        </mxCell>
        <mxCell id="oeh-qcFCU3SFjLL-q-SD-48" style="edgeStyle=none;rounded=0;orthogonalLoop=1;jettySize=auto;html=1;entryX=0;entryY=0;entryDx=80;entryDy=65;entryPerimeter=0;dashed=1;strokeColor=#FF8000;strokeWidth=3;exitX=0;exitY=0.5;exitDx=0;exitDy=0;exitPerimeter=0;" parent="1" source="oeh-qcFCU3SFjLL-q-SD-23" target="oeh-qcFCU3SFjLL-q-SD-14" edge="1">
          <mxGeometry relative="1" as="geometry" />
        </mxCell>
        <mxCell id="oeh-qcFCU3SFjLL-q-SD-53" style="edgeStyle=none;rounded=0;orthogonalLoop=1;jettySize=auto;html=1;exitX=0;exitY=0.5;exitDx=0;exitDy=0;exitPerimeter=0;entryX=0;entryY=0;entryDx=80;entryDy=65;entryPerimeter=0;dashed=1;strokeColor=#FF8000;strokeWidth=3;" parent="1" source="oeh-qcFCU3SFjLL-q-SD-23" target="oeh-qcFCU3SFjLL-q-SD-6" edge="1">
          <mxGeometry relative="1" as="geometry" />
        </mxCell>
        <mxCell id="oeh-qcFCU3SFjLL-q-SD-23" value="attack&lt;br&gt;surface&lt;br&gt;analysis&lt;br&gt;review&lt;br&gt;report" style="shape=note;whiteSpace=wrap;html=1;backgroundOutline=1;darkOpacity=0.05;fillColor=#fff2cc;strokeColor=#000000;" parent="1" vertex="1">
          <mxGeometry x="570" y="840" width="80" height="100" as="geometry" />
        </mxCell>
        <mxCell id="oeh-qcFCU3SFjLL-q-SD-36" style="edgeStyle=none;rounded=0;orthogonalLoop=1;jettySize=auto;html=1;exitX=0.5;exitY=0;exitDx=0;exitDy=0;exitPerimeter=0;entryX=0;entryY=1;entryDx=0;entryDy=0;strokeColor=#0000FF;strokeWidth=3;" parent="1" source="oeh-qcFCU3SFjLL-q-SD-24" target="oeh-qcFCU3SFjLL-q-SD-12" edge="1">
          <mxGeometry relative="1" as="geometry" />
        </mxCell>
        <mxCell id="oeh-qcFCU3SFjLL-q-SD-47" style="edgeStyle=none;rounded=0;orthogonalLoop=1;jettySize=auto;html=1;strokeColor=#FF8000;strokeWidth=3;entryX=0;entryY=0;entryDx=80;entryDy=65;entryPerimeter=0;dashed=1;exitX=0;exitY=0.5;exitDx=0;exitDy=0;exitPerimeter=0;" parent="1" source="oeh-qcFCU3SFjLL-q-SD-24" target="oeh-qcFCU3SFjLL-q-SD-15" edge="1">
          <mxGeometry relative="1" as="geometry">
            <mxPoint x="-420" y="1120" as="targetPoint" />
          </mxGeometry>
        </mxCell>
        <mxCell id="oeh-qcFCU3SFjLL-q-SD-51" style="edgeStyle=none;rounded=0;orthogonalLoop=1;jettySize=auto;html=1;dashed=1;strokeColor=#FF8000;strokeWidth=3;entryX=0;entryY=0;entryDx=80;entryDy=65;entryPerimeter=0;" parent="1" source="oeh-qcFCU3SFjLL-q-SD-24" target="oeh-qcFCU3SFjLL-q-SD-6" edge="1">
          <mxGeometry relative="1" as="geometry" />
        </mxCell>
        <mxCell id="oeh-qcFCU3SFjLL-q-SD-24" value="threat&lt;br&gt;modeling&lt;br&gt;review&lt;br&gt;report" style="shape=note;whiteSpace=wrap;html=1;backgroundOutline=1;darkOpacity=0.05;fillColor=#fff2cc;strokeColor=#000000;" parent="1" vertex="1">
          <mxGeometry x="190" y="920" width="80" height="100" as="geometry" />
        </mxCell>
        <mxCell id="oeh-qcFCU3SFjLL-q-SD-34" style="edgeStyle=none;rounded=0;orthogonalLoop=1;jettySize=auto;html=1;exitX=0.5;exitY=0;exitDx=0;exitDy=0;exitPerimeter=0;entryX=0;entryY=1;entryDx=0;entryDy=0;strokeColor=#0000FF;strokeWidth=3;" parent="1" source="oeh-qcFCU3SFjLL-q-SD-25" target="oeh-qcFCU3SFjLL-q-SD-12" edge="1">
          <mxGeometry relative="1" as="geometry" />
        </mxCell>
        <mxCell id="oeh-qcFCU3SFjLL-q-SD-49" style="edgeStyle=none;rounded=0;orthogonalLoop=1;jettySize=auto;html=1;entryX=1;entryY=0.5;entryDx=0;entryDy=0;dashed=1;strokeColor=#FF8000;strokeWidth=3;" parent="1" source="oeh-qcFCU3SFjLL-q-SD-25" target="oeh-qcFCU3SFjLL-q-SD-2" edge="1">
          <mxGeometry relative="1" as="geometry" />
        </mxCell>
        <mxCell id="oeh-qcFCU3SFjLL-q-SD-50" style="edgeStyle=none;rounded=0;orthogonalLoop=1;jettySize=auto;html=1;exitX=0;exitY=0.5;exitDx=0;exitDy=0;exitPerimeter=0;dashed=1;strokeColor=#FF8000;strokeWidth=3;entryX=0;entryY=0;entryDx=80;entryDy=65;entryPerimeter=0;" parent="1" source="oeh-qcFCU3SFjLL-q-SD-25" target="oeh-qcFCU3SFjLL-q-SD-6" edge="1">
          <mxGeometry relative="1" as="geometry">
            <mxPoint x="-560" y="890" as="targetPoint" />
          </mxGeometry>
        </mxCell>
        <mxCell id="oeh-qcFCU3SFjLL-q-SD-56" style="edgeStyle=none;rounded=0;orthogonalLoop=1;jettySize=auto;html=1;exitX=0;exitY=0.5;exitDx=0;exitDy=0;exitPerimeter=0;entryX=0;entryY=0;entryDx=80;entryDy=65;entryPerimeter=0;dashed=1;strokeColor=#FF8000;strokeWidth=3;" parent="1" source="oeh-qcFCU3SFjLL-q-SD-25" target="3KLiM-ANREKH_K_7CY9G-145" edge="1">
          <mxGeometry relative="1" as="geometry" />
        </mxCell>
        <mxCell id="oeh-qcFCU3SFjLL-q-SD-25" value="penetration&lt;br&gt;testing&lt;br&gt;report" style="shape=note;whiteSpace=wrap;html=1;backgroundOutline=1;darkOpacity=0.05;fillColor=#fff2cc;strokeColor=#000000;" parent="1" vertex="1">
          <mxGeometry x="420" y="590" width="80" height="100" as="geometry" />
        </mxCell>
        <mxCell id="oeh-qcFCU3SFjLL-q-SD-43" style="edgeStyle=none;rounded=0;orthogonalLoop=1;jettySize=auto;html=1;exitX=0.5;exitY=0;exitDx=0;exitDy=0;exitPerimeter=0;entryX=0;entryY=1;entryDx=0;entryDy=0;strokeColor=#0000FF;strokeWidth=3;" parent="1" source="oeh-qcFCU3SFjLL-q-SD-26" target="oeh-qcFCU3SFjLL-q-SD-11" edge="1">
          <mxGeometry relative="1" as="geometry" />
        </mxCell>
        <mxCell id="oeh-qcFCU3SFjLL-q-SD-26" value="fuzz&lt;br&gt;testing&lt;br&gt;report" style="shape=note;whiteSpace=wrap;html=1;backgroundOutline=1;darkOpacity=0.05;fillColor=#fff2cc;strokeColor=#000000;" parent="1" vertex="1">
          <mxGeometry x="80" y="1430" width="80" height="100" as="geometry" />
        </mxCell>
        <mxCell id="oeh-qcFCU3SFjLL-q-SD-44" style="edgeStyle=none;rounded=0;orthogonalLoop=1;jettySize=auto;html=1;exitX=0.5;exitY=0;exitDx=0;exitDy=0;exitPerimeter=0;strokeColor=#0000FF;strokeWidth=3;entryX=0;entryY=1;entryDx=0;entryDy=0;" parent="1" source="oeh-qcFCU3SFjLL-q-SD-27" target="oeh-qcFCU3SFjLL-q-SD-11" edge="1">
          <mxGeometry relative="1" as="geometry">
            <mxPoint x="240" y="1460" as="targetPoint" />
          </mxGeometry>
        </mxCell>
        <mxCell id="oeh-qcFCU3SFjLL-q-SD-27" value="static&lt;br&gt;analysis&lt;br&gt;report" style="shape=note;whiteSpace=wrap;html=1;backgroundOutline=1;darkOpacity=0.05;fillColor=#fff2cc;strokeColor=#000000;" parent="1" vertex="1">
          <mxGeometry x="170" y="1430" width="80" height="100" as="geometry" />
        </mxCell>
        <mxCell id="oeh-qcFCU3SFjLL-q-SD-45" style="edgeStyle=none;rounded=0;orthogonalLoop=1;jettySize=auto;html=1;exitX=0.5;exitY=0;exitDx=0;exitDy=0;exitPerimeter=0;entryX=0;entryY=1;entryDx=0;entryDy=0;strokeColor=#0000FF;strokeWidth=3;" parent="1" source="oeh-qcFCU3SFjLL-q-SD-28" target="oeh-qcFCU3SFjLL-q-SD-11" edge="1">
          <mxGeometry relative="1" as="geometry" />
        </mxCell>
        <mxCell id="oeh-qcFCU3SFjLL-q-SD-28" value="dynamic&lt;br&gt;analysis&lt;br&gt;report" style="shape=note;whiteSpace=wrap;html=1;backgroundOutline=1;darkOpacity=0.05;fillColor=#fff2cc;strokeColor=#000000;" parent="1" vertex="1">
          <mxGeometry x="260" y="1430" width="80" height="100" as="geometry" />
        </mxCell>
        <mxCell id="oeh-qcFCU3SFjLL-q-SD-46" style="edgeStyle=none;rounded=0;orthogonalLoop=1;jettySize=auto;html=1;exitX=0.5;exitY=0;exitDx=0;exitDy=0;exitPerimeter=0;entryX=0;entryY=1;entryDx=0;entryDy=0;strokeColor=#0000FF;strokeWidth=3;" parent="1" source="oeh-qcFCU3SFjLL-q-SD-29" target="oeh-qcFCU3SFjLL-q-SD-11" edge="1">
          <mxGeometry relative="1" as="geometry" />
        </mxCell>
        <mxCell id="oeh-qcFCU3SFjLL-q-SD-55" style="edgeStyle=none;rounded=0;orthogonalLoop=1;jettySize=auto;html=1;exitX=0;exitY=0.5;exitDx=0;exitDy=0;exitPerimeter=0;entryX=0;entryY=0;entryDx=80;entryDy=65;entryPerimeter=0;dashed=1;strokeColor=#FF8000;strokeWidth=3;" parent="1" source="oeh-qcFCU3SFjLL-q-SD-29" target="oeh-qcFCU3SFjLL-q-SD-6" edge="1">
          <mxGeometry relative="1" as="geometry" />
        </mxCell>
        <mxCell id="oeh-qcFCU3SFjLL-q-SD-29" value="security&lt;br&gt;code&lt;br&gt;review&lt;br&gt;report" style="shape=note;whiteSpace=wrap;html=1;backgroundOutline=1;darkOpacity=0.05;fillColor=#fff2cc;strokeColor=#000000;" parent="1" vertex="1">
          <mxGeometry x="-10" y="1430" width="80" height="100" as="geometry" />
        </mxCell>
        <mxCell id="oeh-qcFCU3SFjLL-q-SD-38" style="edgeStyle=none;rounded=0;orthogonalLoop=1;jettySize=auto;html=1;exitX=0.5;exitY=0;exitDx=0;exitDy=0;exitPerimeter=0;entryX=0;entryY=1;entryDx=0;entryDy=0;strokeColor=#0000FF;strokeWidth=3;" parent="1" source="oeh-qcFCU3SFjLL-q-SD-30" target="oeh-qcFCU3SFjLL-q-SD-13" edge="1">
          <mxGeometry relative="1" as="geometry" />
        </mxCell>
        <mxCell id="oeh-qcFCU3SFjLL-q-SD-54" style="edgeStyle=none;rounded=0;orthogonalLoop=1;jettySize=auto;html=1;exitX=0;exitY=0.5;exitDx=0;exitDy=0;exitPerimeter=0;entryX=0;entryY=0;entryDx=80;entryDy=65;entryPerimeter=0;dashed=1;strokeColor=#FF8000;strokeWidth=3;" parent="1" source="oeh-qcFCU3SFjLL-q-SD-30" target="3KLiM-ANREKH_K_7CY9G-145" edge="1">
          <mxGeometry relative="1" as="geometry" />
        </mxCell>
        <mxCell id="oeh-qcFCU3SFjLL-q-SD-57" style="edgeStyle=none;rounded=0;orthogonalLoop=1;jettySize=auto;html=1;exitX=0;exitY=0.5;exitDx=0;exitDy=0;exitPerimeter=0;entryX=0;entryY=0;entryDx=80;entryDy=65;entryPerimeter=0;dashed=1;strokeColor=#FF8000;strokeWidth=3;" parent="1" source="oeh-qcFCU3SFjLL-q-SD-30" target="3KLiM-ANREKH_K_7CY9G-142" edge="1">
          <mxGeometry relative="1" as="geometry" />
        </mxCell>
        <mxCell id="oeh-qcFCU3SFjLL-q-SD-30" value="final&lt;br&gt;security&lt;br&gt;review&lt;br&gt;report" style="shape=note;whiteSpace=wrap;html=1;backgroundOutline=1;darkOpacity=0.05;fillColor=#fff2cc;strokeColor=#000000;" parent="1" vertex="1">
          <mxGeometry x="520" y="240" width="80" height="100" as="geometry" />
        </mxCell>
        <mxCell id="oeh-qcFCU3SFjLL-q-SD-58" value="implemented&lt;br&gt;product" style="shape=note;whiteSpace=wrap;html=1;backgroundOutline=1;darkOpacity=0.05;fillColor=#d5e8d4;strokeColor=#000000;" parent="1" vertex="1">
          <mxGeometry x="290" y="1100" width="80" height="100" as="geometry" />
        </mxCell>
      </root>
    </mxGraphModel>
  </diagram>
  <diagram id="gqKVJ9LdgBmUoCxsHHIh" name="verification">
    <mxGraphModel dx="3400" dy="1686" grid="1" gridSize="10" guides="1" tooltips="1" connect="1" arrows="1" fold="1" page="0" pageScale="1" pageWidth="850" pageHeight="1100" math="0" shadow="0">
      <root>
        <mxCell id="0" />
        <mxCell id="1" parent="0" />
        <mxCell id="FtLOZo30l9m00nfxpWM2-1" value="" style="rounded=0;whiteSpace=wrap;html=1;labelBackgroundColor=none;fillColor=#CCE5FF;strokeColor=#000000;strokeWidth=2;" parent="1" vertex="1">
          <mxGeometry x="-170" y="430" width="770" height="1140" as="geometry" />
        </mxCell>
        <mxCell id="FtLOZo30l9m00nfxpWM2-2" style="rounded=0;orthogonalLoop=1;jettySize=auto;html=1;entryX=0.5;entryY=0;entryDx=0;entryDy=0;endArrow=classicThin;endFill=1;strokeColor=#0000FF;strokeWidth=3;entryPerimeter=0;exitX=0.5;exitY=1;exitDx=0;exitDy=0;exitPerimeter=0;" parent="1" source="FtLOZo30l9m00nfxpWM2-3" target="FtLOZo30l9m00nfxpWM2-7" edge="1">
          <mxGeometry relative="1" as="geometry" />
        </mxCell>
        <mxCell id="FtLOZo30l9m00nfxpWM2-3" value="element-level&lt;br&gt;cybersecurity&lt;br&gt;requirements" style="shape=note;whiteSpace=wrap;html=1;backgroundOutline=1;darkOpacity=0.05;fillColor=#fff2cc;strokeColor=#000000;" parent="1" vertex="1">
          <mxGeometry x="-730" y="430" width="80" height="100" as="geometry" />
        </mxCell>
        <mxCell id="FtLOZo30l9m00nfxpWM2-4" value="&lt;b&gt;Verification&lt;/b&gt;" style="text;html=1;strokeColor=none;fillColor=none;align=left;verticalAlign=middle;whiteSpace=wrap;rounded=0;labelBackgroundColor=none;spacingLeft=5;" parent="1" vertex="1">
          <mxGeometry x="-170" y="430" width="80" height="30" as="geometry" />
        </mxCell>
        <mxCell id="FtLOZo30l9m00nfxpWM2-6" value="" style="group" parent="1" vertex="1" connectable="0">
          <mxGeometry x="-670" y="610" width="80" height="100" as="geometry" />
        </mxCell>
        <mxCell id="FtLOZo30l9m00nfxpWM2-7" value="element&lt;br&gt;functional&lt;br&gt;requirements&lt;br&gt;&lt;br&gt;&lt;br&gt;" style="shape=note;whiteSpace=wrap;html=1;backgroundOutline=1;darkOpacity=0.05;fillColor=#d5e8d4;strokeColor=#000000;" parent="FtLOZo30l9m00nfxpWM2-6" vertex="1">
          <mxGeometry width="80" height="100" as="geometry" />
        </mxCell>
        <mxCell id="FtLOZo30l9m00nfxpWM2-8" value="cybersecurity&lt;br&gt;dependencies" style="rounded=0;whiteSpace=wrap;html=1;fillColor=#fff2cc;strokeColor=#000000;" parent="FtLOZo30l9m00nfxpWM2-6" vertex="1">
          <mxGeometry y="60" width="80" height="40" as="geometry" />
        </mxCell>
        <mxCell id="FtLOZo30l9m00nfxpWM2-9" style="edgeStyle=none;rounded=0;orthogonalLoop=1;jettySize=auto;html=1;exitX=1;exitY=1;exitDx=0;exitDy=0;entryX=0.5;entryY=0;entryDx=0;entryDy=0;entryPerimeter=0;strokeColor=#0000FF;strokeWidth=3;" parent="1" source="FtLOZo30l9m00nfxpWM2-11" target="FtLOZo30l9m00nfxpWM2-14" edge="1">
          <mxGeometry relative="1" as="geometry" />
        </mxCell>
        <mxCell id="FtLOZo30l9m00nfxpWM2-10" style="edgeStyle=none;rounded=0;orthogonalLoop=1;jettySize=auto;html=1;exitX=0.5;exitY=1;exitDx=0;exitDy=0;entryX=0.5;entryY=0;entryDx=0;entryDy=0;entryPerimeter=0;strokeColor=#0000FF;strokeWidth=3;exitPerimeter=0;" parent="1" source="FtLOZo30l9m00nfxpWM2-14" target="FtLOZo30l9m00nfxpWM2-26" edge="1">
          <mxGeometry relative="1" as="geometry" />
        </mxCell>
        <mxCell id="FtLOZo30l9m00nfxpWM2-11" value="requirements&lt;br&gt;gate" style="rhombus;whiteSpace=wrap;html=1;fillColor=default;" parent="1" vertex="1">
          <mxGeometry x="-600" y="760" width="110" height="80" as="geometry" />
        </mxCell>
        <mxCell id="FtLOZo30l9m00nfxpWM2-12" style="rounded=0;orthogonalLoop=1;jettySize=auto;html=1;entryX=0;entryY=0;entryDx=0;entryDy=0;strokeColor=#0000FF;strokeWidth=3;exitX=0.5;exitY=1;exitDx=0;exitDy=0;" parent="1" source="FtLOZo30l9m00nfxpWM2-8" target="FtLOZo30l9m00nfxpWM2-11" edge="1">
          <mxGeometry relative="1" as="geometry" />
        </mxCell>
        <mxCell id="FtLOZo30l9m00nfxpWM2-13" style="edgeStyle=none;rounded=0;orthogonalLoop=1;jettySize=auto;html=1;exitX=0.5;exitY=1;exitDx=0;exitDy=0;exitPerimeter=0;entryX=0.5;entryY=0;entryDx=0;entryDy=0;strokeColor=#0000FF;strokeWidth=3;entryPerimeter=0;" parent="1" source="FtLOZo30l9m00nfxpWM2-14" target="FtLOZo30l9m00nfxpWM2-24" edge="1">
          <mxGeometry relative="1" as="geometry" />
        </mxCell>
        <mxCell id="FtLOZo30l9m00nfxpWM2-14" value="reviewed&lt;br&gt;element&lt;br&gt;design" style="shape=note;whiteSpace=wrap;html=1;backgroundOutline=1;darkOpacity=0.05;fillColor=#d5e8d4;strokeColor=#000000;" parent="1" vertex="1">
          <mxGeometry x="-520" y="870" width="80" height="100" as="geometry" />
        </mxCell>
        <mxCell id="FtLOZo30l9m00nfxpWM2-16" style="edgeStyle=none;rounded=0;orthogonalLoop=1;jettySize=auto;html=1;exitX=0.5;exitY=0;exitDx=0;exitDy=0;entryX=0.5;entryY=1;entryDx=0;entryDy=0;entryPerimeter=0;strokeColor=#0000FF;strokeWidth=3;exitPerimeter=0;" parent="1" source="FtLOZo30l9m00nfxpWM2-51" target="FtLOZo30l9m00nfxpWM2-39" edge="1">
          <mxGeometry relative="1" as="geometry" />
        </mxCell>
        <mxCell id="FtLOZo30l9m00nfxpWM2-17" style="edgeStyle=none;rounded=0;orthogonalLoop=1;jettySize=auto;html=1;exitX=0.5;exitY=0;exitDx=0;exitDy=0;entryX=0.5;entryY=1;entryDx=0;entryDy=0;entryPerimeter=0;strokeColor=#0000FF;strokeWidth=3;exitPerimeter=0;" parent="1" source="FtLOZo30l9m00nfxpWM2-51" target="FtLOZo30l9m00nfxpWM2-30" edge="1">
          <mxGeometry relative="1" as="geometry" />
        </mxCell>
        <mxCell id="FtLOZo30l9m00nfxpWM2-18" style="edgeStyle=none;rounded=0;orthogonalLoop=1;jettySize=auto;html=1;exitX=0.5;exitY=0;exitDx=0;exitDy=0;entryX=0.5;entryY=1;entryDx=0;entryDy=0;entryPerimeter=0;strokeColor=#0000FF;strokeWidth=3;exitPerimeter=0;" parent="1" source="FtLOZo30l9m00nfxpWM2-51" target="FtLOZo30l9m00nfxpWM2-34" edge="1">
          <mxGeometry relative="1" as="geometry" />
        </mxCell>
        <mxCell id="FtLOZo30l9m00nfxpWM2-19" style="edgeStyle=none;rounded=0;orthogonalLoop=1;jettySize=auto;html=1;exitX=1;exitY=0;exitDx=0;exitDy=0;entryX=0.5;entryY=1;entryDx=0;entryDy=0;entryPerimeter=0;strokeColor=#0000FF;strokeWidth=3;" parent="1" source="FtLOZo30l9m00nfxpWM2-20" target="FtLOZo30l9m00nfxpWM2-51" edge="1">
          <mxGeometry relative="1" as="geometry" />
        </mxCell>
        <mxCell id="FtLOZo30l9m00nfxpWM2-20" value="implementation&lt;br&gt;gate" style="rhombus;whiteSpace=wrap;html=1;fillColor=default;" parent="1" vertex="1">
          <mxGeometry x="150" y="1260" width="110" height="80" as="geometry" />
        </mxCell>
        <mxCell id="FtLOZo30l9m00nfxpWM2-24" value="attack&lt;br&gt;surface&lt;br&gt;analysis&lt;br&gt;report" style="shape=note;whiteSpace=wrap;html=1;backgroundOutline=1;darkOpacity=0.05;fillColor=#fff2cc;strokeColor=#000000;" parent="1" vertex="1">
          <mxGeometry x="-380" y="1350" width="80" height="100" as="geometry" />
        </mxCell>
        <mxCell id="FtLOZo30l9m00nfxpWM2-26" value="threat&lt;br&gt;modeling&lt;br&gt;report" style="shape=note;whiteSpace=wrap;html=1;backgroundOutline=1;darkOpacity=0.05;fillColor=#fff2cc;strokeColor=#000000;" parent="1" vertex="1">
          <mxGeometry x="-370" y="1130" width="80" height="100" as="geometry" />
        </mxCell>
        <mxCell id="FtLOZo30l9m00nfxpWM2-28" style="edgeStyle=none;rounded=0;orthogonalLoop=1;jettySize=auto;html=1;entryX=0;entryY=0;entryDx=80;entryDy=65;entryPerimeter=0;dashed=1;strokeColor=#FF8000;strokeWidth=3;exitX=0;exitY=0.5;exitDx=0;exitDy=0;exitPerimeter=0;" parent="1" source="FtLOZo30l9m00nfxpWM2-30" target="FtLOZo30l9m00nfxpWM2-24" edge="1">
          <mxGeometry relative="1" as="geometry" />
        </mxCell>
        <mxCell id="FtLOZo30l9m00nfxpWM2-29" style="edgeStyle=none;rounded=0;orthogonalLoop=1;jettySize=auto;html=1;exitX=0;exitY=0.5;exitDx=0;exitDy=0;exitPerimeter=0;entryX=0;entryY=0;entryDx=80;entryDy=65;entryPerimeter=0;dashed=1;strokeColor=#FF8000;strokeWidth=3;" parent="1" source="FtLOZo30l9m00nfxpWM2-30" target="FtLOZo30l9m00nfxpWM2-14" edge="1">
          <mxGeometry relative="1" as="geometry" />
        </mxCell>
        <mxCell id="FtLOZo30l9m00nfxpWM2-30" value="attack&lt;br&gt;surface&lt;br&gt;analysis&lt;br&gt;review&lt;br&gt;report" style="shape=note;whiteSpace=wrap;html=1;backgroundOutline=1;darkOpacity=0.05;fillColor=#fff2cc;strokeColor=#000000;" parent="1" vertex="1">
          <mxGeometry x="290" y="870" width="80" height="100" as="geometry" />
        </mxCell>
        <mxCell id="FtLOZo30l9m00nfxpWM2-32" style="edgeStyle=none;rounded=0;orthogonalLoop=1;jettySize=auto;html=1;strokeColor=#FF8000;strokeWidth=3;entryX=0;entryY=0;entryDx=80;entryDy=65;entryPerimeter=0;dashed=1;exitX=0;exitY=0.5;exitDx=0;exitDy=0;exitPerimeter=0;" parent="1" source="FtLOZo30l9m00nfxpWM2-34" target="FtLOZo30l9m00nfxpWM2-26" edge="1">
          <mxGeometry relative="1" as="geometry">
            <mxPoint x="-420" y="1120" as="targetPoint" />
          </mxGeometry>
        </mxCell>
        <mxCell id="FtLOZo30l9m00nfxpWM2-33" style="edgeStyle=none;rounded=0;orthogonalLoop=1;jettySize=auto;html=1;dashed=1;strokeColor=#FF8000;strokeWidth=3;entryX=0;entryY=0;entryDx=80;entryDy=65;entryPerimeter=0;" parent="1" source="FtLOZo30l9m00nfxpWM2-34" target="FtLOZo30l9m00nfxpWM2-14" edge="1">
          <mxGeometry relative="1" as="geometry" />
        </mxCell>
        <mxCell id="FtLOZo30l9m00nfxpWM2-34" value="threat&lt;br&gt;modeling&lt;br&gt;review&lt;br&gt;report" style="shape=note;whiteSpace=wrap;html=1;backgroundOutline=1;darkOpacity=0.05;fillColor=#fff2cc;strokeColor=#000000;" parent="1" vertex="1">
          <mxGeometry x="40" y="940" width="80" height="100" as="geometry" />
        </mxCell>
        <mxCell id="FtLOZo30l9m00nfxpWM2-36" style="edgeStyle=none;rounded=0;orthogonalLoop=1;jettySize=auto;html=1;entryX=1;entryY=0.5;entryDx=0;entryDy=0;dashed=1;strokeColor=#FF8000;strokeWidth=3;" parent="1" source="FtLOZo30l9m00nfxpWM2-39" target="FtLOZo30l9m00nfxpWM2-8" edge="1">
          <mxGeometry relative="1" as="geometry" />
        </mxCell>
        <mxCell id="FtLOZo30l9m00nfxpWM2-37" style="edgeStyle=none;rounded=0;orthogonalLoop=1;jettySize=auto;html=1;exitX=0;exitY=0.5;exitDx=0;exitDy=0;exitPerimeter=0;dashed=1;strokeColor=#FF8000;strokeWidth=3;entryX=0;entryY=0;entryDx=80;entryDy=65;entryPerimeter=0;" parent="1" source="FtLOZo30l9m00nfxpWM2-39" target="FtLOZo30l9m00nfxpWM2-14" edge="1">
          <mxGeometry relative="1" as="geometry">
            <mxPoint x="-560" y="890" as="targetPoint" />
          </mxGeometry>
        </mxCell>
        <mxCell id="FtLOZo30l9m00nfxpWM2-38" style="edgeStyle=none;rounded=0;orthogonalLoop=1;jettySize=auto;html=1;exitX=0;exitY=0.5;exitDx=0;exitDy=0;exitPerimeter=0;entryX=0;entryY=0;entryDx=80;entryDy=65;entryPerimeter=0;dashed=1;strokeColor=#FF8000;strokeWidth=3;" parent="1" source="FtLOZo30l9m00nfxpWM2-39" target="FtLOZo30l9m00nfxpWM2-3" edge="1">
          <mxGeometry relative="1" as="geometry" />
        </mxCell>
        <mxCell id="FtLOZo30l9m00nfxpWM2-39" value="penetration&lt;br&gt;testing&lt;br&gt;report" style="shape=note;whiteSpace=wrap;html=1;backgroundOutline=1;darkOpacity=0.05;fillColor=#fff2cc;strokeColor=#000000;" parent="1" vertex="1">
          <mxGeometry x="480" y="760" width="80" height="100" as="geometry" />
        </mxCell>
        <mxCell id="FtLOZo30l9m00nfxpWM2-40" style="edgeStyle=none;rounded=0;orthogonalLoop=1;jettySize=auto;html=1;exitX=0.5;exitY=0;exitDx=0;exitDy=0;exitPerimeter=0;entryX=0;entryY=1;entryDx=0;entryDy=0;strokeColor=#0000FF;strokeWidth=3;" parent="1" source="FtLOZo30l9m00nfxpWM2-41" target="FtLOZo30l9m00nfxpWM2-20" edge="1">
          <mxGeometry relative="1" as="geometry" />
        </mxCell>
        <mxCell id="FtLOZo30l9m00nfxpWM2-41" value="fuzz&lt;br&gt;testing&lt;br&gt;report" style="shape=note;whiteSpace=wrap;html=1;backgroundOutline=1;darkOpacity=0.05;fillColor=#fff2cc;strokeColor=#000000;" parent="1" vertex="1">
          <mxGeometry x="70" y="1430" width="80" height="100" as="geometry" />
        </mxCell>
        <mxCell id="FtLOZo30l9m00nfxpWM2-42" style="edgeStyle=none;rounded=0;orthogonalLoop=1;jettySize=auto;html=1;exitX=0.5;exitY=0;exitDx=0;exitDy=0;exitPerimeter=0;strokeColor=#0000FF;strokeWidth=3;entryX=0;entryY=1;entryDx=0;entryDy=0;" parent="1" source="FtLOZo30l9m00nfxpWM2-43" target="FtLOZo30l9m00nfxpWM2-20" edge="1">
          <mxGeometry relative="1" as="geometry">
            <mxPoint x="120" y="1460" as="targetPoint" />
          </mxGeometry>
        </mxCell>
        <mxCell id="FtLOZo30l9m00nfxpWM2-43" value="static&lt;br&gt;analysis&lt;br&gt;report" style="shape=note;whiteSpace=wrap;html=1;backgroundOutline=1;darkOpacity=0.05;fillColor=#fff2cc;strokeColor=#000000;" parent="1" vertex="1">
          <mxGeometry x="160" y="1430" width="80" height="100" as="geometry" />
        </mxCell>
        <mxCell id="FtLOZo30l9m00nfxpWM2-44" style="edgeStyle=none;rounded=0;orthogonalLoop=1;jettySize=auto;html=1;exitX=0.5;exitY=0;exitDx=0;exitDy=0;exitPerimeter=0;entryX=0;entryY=1;entryDx=0;entryDy=0;strokeColor=#0000FF;strokeWidth=3;" parent="1" source="FtLOZo30l9m00nfxpWM2-45" target="FtLOZo30l9m00nfxpWM2-20" edge="1">
          <mxGeometry relative="1" as="geometry" />
        </mxCell>
        <mxCell id="FtLOZo30l9m00nfxpWM2-45" value="dynamic&lt;br&gt;analysis&lt;br&gt;report" style="shape=note;whiteSpace=wrap;html=1;backgroundOutline=1;darkOpacity=0.05;fillColor=#fff2cc;strokeColor=#000000;" parent="1" vertex="1">
          <mxGeometry x="250" y="1430" width="80" height="100" as="geometry" />
        </mxCell>
        <mxCell id="FtLOZo30l9m00nfxpWM2-46" style="edgeStyle=none;rounded=0;orthogonalLoop=1;jettySize=auto;html=1;exitX=0.5;exitY=0;exitDx=0;exitDy=0;exitPerimeter=0;entryX=0;entryY=1;entryDx=0;entryDy=0;strokeColor=#0000FF;strokeWidth=3;" parent="1" source="FtLOZo30l9m00nfxpWM2-48" target="FtLOZo30l9m00nfxpWM2-20" edge="1">
          <mxGeometry relative="1" as="geometry" />
        </mxCell>
        <mxCell id="FtLOZo30l9m00nfxpWM2-47" style="edgeStyle=none;rounded=0;orthogonalLoop=1;jettySize=auto;html=1;exitX=0;exitY=0.5;exitDx=0;exitDy=0;exitPerimeter=0;entryX=0;entryY=0;entryDx=80;entryDy=65;entryPerimeter=0;dashed=1;strokeColor=#FF8000;strokeWidth=3;" parent="1" source="FtLOZo30l9m00nfxpWM2-48" target="FtLOZo30l9m00nfxpWM2-14" edge="1">
          <mxGeometry relative="1" as="geometry" />
        </mxCell>
        <mxCell id="FtLOZo30l9m00nfxpWM2-48" value="security&lt;br&gt;code&lt;br&gt;review&lt;br&gt;report" style="shape=note;whiteSpace=wrap;html=1;backgroundOutline=1;darkOpacity=0.05;fillColor=#fff2cc;strokeColor=#000000;" parent="1" vertex="1">
          <mxGeometry x="-20" y="1430" width="80" height="100" as="geometry" />
        </mxCell>
        <mxCell id="FtLOZo30l9m00nfxpWM2-51" value="implemented&lt;br&gt;product" style="shape=note;whiteSpace=wrap;html=1;backgroundOutline=1;darkOpacity=0.05;fillColor=#d5e8d4;strokeColor=#000000;" parent="1" vertex="1">
          <mxGeometry x="250" y="1100" width="80" height="100" as="geometry" />
        </mxCell>
        <mxCell id="jiEN0UzoELuQkC-Qopkt-1" value="verification&lt;br&gt;gate" style="rhombus;whiteSpace=wrap;html=1;fillColor=default;" parent="1" vertex="1">
          <mxGeometry x="450" y="390" width="110" height="80" as="geometry" />
        </mxCell>
        <mxCell id="jiEN0UzoELuQkC-Qopkt-2" style="edgeStyle=none;rounded=0;orthogonalLoop=1;jettySize=auto;html=1;exitX=0.5;exitY=0;exitDx=0;exitDy=0;exitPerimeter=0;strokeColor=#0000FF;strokeWidth=3;entryX=0;entryY=1;entryDx=0;entryDy=0;" parent="1" source="FtLOZo30l9m00nfxpWM2-39" target="jiEN0UzoELuQkC-Qopkt-1" edge="1">
          <mxGeometry relative="1" as="geometry">
            <mxPoint x="500" y="1090" as="targetPoint" />
            <mxPoint x="610" y="840" as="sourcePoint" />
          </mxGeometry>
        </mxCell>
        <mxCell id="jiEN0UzoELuQkC-Qopkt-3" style="edgeStyle=none;rounded=0;orthogonalLoop=1;jettySize=auto;html=1;exitX=0.5;exitY=0;exitDx=0;exitDy=0;exitPerimeter=0;entryX=0;entryY=1;entryDx=0;entryDy=0;strokeColor=#0000FF;strokeWidth=3;" parent="1" source="FtLOZo30l9m00nfxpWM2-34" target="jiEN0UzoELuQkC-Qopkt-1" edge="1">
          <mxGeometry relative="1" as="geometry">
            <mxPoint x="230" y="920" as="sourcePoint" />
          </mxGeometry>
        </mxCell>
        <mxCell id="jiEN0UzoELuQkC-Qopkt-4" style="edgeStyle=none;rounded=0;orthogonalLoop=1;jettySize=auto;html=1;exitX=0.5;exitY=0;exitDx=0;exitDy=0;exitPerimeter=0;entryX=0;entryY=1;entryDx=0;entryDy=0;strokeColor=#0000FF;strokeWidth=3;" parent="1" source="FtLOZo30l9m00nfxpWM2-30" target="jiEN0UzoELuQkC-Qopkt-1" edge="1">
          <mxGeometry relative="1" as="geometry">
            <mxPoint x="460" y="590" as="sourcePoint" />
          </mxGeometry>
        </mxCell>
      </root>
    </mxGraphModel>
  </diagram>
  <diagram name="verification - security code review" id="UwFntxqfTyatswgvjZpF">
    <mxGraphModel dx="3040" dy="1323" grid="1" gridSize="10" guides="1" tooltips="1" connect="1" arrows="1" fold="1" page="0" pageScale="1" pageWidth="850" pageHeight="1100" math="0" shadow="0">
      <root>
        <mxCell id="S3WbqN-dtxPpAbAGp9MC-0" />
        <mxCell id="S3WbqN-dtxPpAbAGp9MC-1" parent="S3WbqN-dtxPpAbAGp9MC-0" />
        <mxCell id="S3WbqN-dtxPpAbAGp9MC-2" value="" style="rounded=0;whiteSpace=wrap;html=1;labelBackgroundColor=none;fillColor=#CCE5FF;strokeColor=#000000;strokeWidth=2;" parent="S3WbqN-dtxPpAbAGp9MC-1" vertex="1">
          <mxGeometry x="-170" y="430" width="200" height="230" as="geometry" />
        </mxCell>
        <mxCell id="S3WbqN-dtxPpAbAGp9MC-5" value="&lt;b&gt;Verification&lt;/b&gt;" style="text;html=1;strokeColor=none;fillColor=none;align=left;verticalAlign=middle;whiteSpace=wrap;rounded=0;labelBackgroundColor=none;spacingLeft=5;" parent="S3WbqN-dtxPpAbAGp9MC-1" vertex="1">
          <mxGeometry x="-170" y="430" width="80" height="30" as="geometry" />
        </mxCell>
        <mxCell id="S3WbqN-dtxPpAbAGp9MC-14" value="reviewed&lt;br&gt;element&lt;br&gt;design" style="shape=note;whiteSpace=wrap;html=1;backgroundOutline=1;darkOpacity=0.05;fillColor=#d5e8d4;strokeColor=#000000;" parent="S3WbqN-dtxPpAbAGp9MC-1" vertex="1">
          <mxGeometry x="-390" y="440" width="80" height="100" as="geometry" />
        </mxCell>
        <mxCell id="S3WbqN-dtxPpAbAGp9MC-39" style="edgeStyle=none;rounded=0;orthogonalLoop=1;jettySize=auto;html=1;exitX=0;exitY=0.5;exitDx=0;exitDy=0;exitPerimeter=0;entryX=0;entryY=0;entryDx=80;entryDy=65;entryPerimeter=0;dashed=1;strokeColor=#FF8000;strokeWidth=3;" parent="S3WbqN-dtxPpAbAGp9MC-1" source="S3WbqN-dtxPpAbAGp9MC-40" target="S3WbqN-dtxPpAbAGp9MC-14" edge="1">
          <mxGeometry relative="1" as="geometry" />
        </mxCell>
        <mxCell id="S3WbqN-dtxPpAbAGp9MC-40" value="security&lt;br&gt;code&lt;br&gt;review&lt;br&gt;report" style="shape=note;whiteSpace=wrap;html=1;backgroundOutline=1;darkOpacity=0.05;fillColor=#fff2cc;strokeColor=#000000;" parent="S3WbqN-dtxPpAbAGp9MC-1" vertex="1">
          <mxGeometry x="-90" y="520" width="80" height="100" as="geometry" />
        </mxCell>
      </root>
    </mxGraphModel>
  </diagram>
  <diagram name="verification - threat modeling review" id="dVLIyaobTeuNbjDrkUdN">
    <mxGraphModel dx="3440" dy="1323" grid="1" gridSize="10" guides="1" tooltips="1" connect="1" arrows="1" fold="1" page="0" pageScale="1" pageWidth="850" pageHeight="1100" math="0" shadow="0">
      <root>
        <mxCell id="mxCrWRpwNnnZa7mIOksv-0" />
        <mxCell id="mxCrWRpwNnnZa7mIOksv-1" parent="mxCrWRpwNnnZa7mIOksv-0" />
        <mxCell id="mxCrWRpwNnnZa7mIOksv-2" value="" style="rounded=0;whiteSpace=wrap;html=1;labelBackgroundColor=none;fillColor=#CCE5FF;strokeColor=#000000;strokeWidth=2;" parent="mxCrWRpwNnnZa7mIOksv-1" vertex="1">
          <mxGeometry x="-170" y="430" width="330" height="370" as="geometry" />
        </mxCell>
        <mxCell id="mxCrWRpwNnnZa7mIOksv-5" value="&lt;b&gt;Verification&lt;/b&gt;" style="text;html=1;strokeColor=none;fillColor=none;align=left;verticalAlign=middle;whiteSpace=wrap;rounded=0;labelBackgroundColor=none;spacingLeft=5;" parent="mxCrWRpwNnnZa7mIOksv-1" vertex="1">
          <mxGeometry x="-170" y="430" width="80" height="30" as="geometry" />
        </mxCell>
        <mxCell id="mxCrWRpwNnnZa7mIOksv-10" style="edgeStyle=none;rounded=0;orthogonalLoop=1;jettySize=auto;html=1;exitX=0.5;exitY=1;exitDx=0;exitDy=0;entryX=0.5;entryY=0;entryDx=0;entryDy=0;entryPerimeter=0;strokeColor=#0000FF;strokeWidth=3;exitPerimeter=0;" parent="mxCrWRpwNnnZa7mIOksv-1" source="mxCrWRpwNnnZa7mIOksv-14" target="mxCrWRpwNnnZa7mIOksv-21" edge="1">
          <mxGeometry relative="1" as="geometry" />
        </mxCell>
        <mxCell id="mxCrWRpwNnnZa7mIOksv-14" value="reviewed&lt;br&gt;element&lt;br&gt;design" style="shape=note;whiteSpace=wrap;html=1;backgroundOutline=1;darkOpacity=0.05;fillColor=#d5e8d4;strokeColor=#000000;" parent="mxCrWRpwNnnZa7mIOksv-1" vertex="1">
          <mxGeometry x="-520" y="440" width="80" height="100" as="geometry" />
        </mxCell>
        <mxCell id="mxCrWRpwNnnZa7mIOksv-21" value="threat&lt;br&gt;modeling&lt;br&gt;report" style="shape=note;whiteSpace=wrap;html=1;backgroundOutline=1;darkOpacity=0.05;fillColor=#fff2cc;strokeColor=#000000;" parent="mxCrWRpwNnnZa7mIOksv-1" vertex="1">
          <mxGeometry x="-370" y="700" width="80" height="100" as="geometry" />
        </mxCell>
        <mxCell id="mxCrWRpwNnnZa7mIOksv-25" style="edgeStyle=none;rounded=0;orthogonalLoop=1;jettySize=auto;html=1;strokeColor=#FF8000;strokeWidth=3;entryX=0;entryY=0;entryDx=80;entryDy=65;entryPerimeter=0;dashed=1;exitX=0;exitY=0.5;exitDx=0;exitDy=0;exitPerimeter=0;" parent="mxCrWRpwNnnZa7mIOksv-1" source="mxCrWRpwNnnZa7mIOksv-27" target="mxCrWRpwNnnZa7mIOksv-21" edge="1">
          <mxGeometry relative="1" as="geometry">
            <mxPoint x="-420" y="690" as="targetPoint" />
          </mxGeometry>
        </mxCell>
        <mxCell id="mxCrWRpwNnnZa7mIOksv-26" style="edgeStyle=none;rounded=0;orthogonalLoop=1;jettySize=auto;html=1;dashed=1;strokeColor=#FF8000;strokeWidth=3;entryX=0;entryY=0;entryDx=80;entryDy=65;entryPerimeter=0;" parent="mxCrWRpwNnnZa7mIOksv-1" source="mxCrWRpwNnnZa7mIOksv-27" target="mxCrWRpwNnnZa7mIOksv-14" edge="1">
          <mxGeometry relative="1" as="geometry" />
        </mxCell>
        <mxCell id="mxCrWRpwNnnZa7mIOksv-27" value="threat&lt;br&gt;modeling&lt;br&gt;review&lt;br&gt;report" style="shape=note;whiteSpace=wrap;html=1;backgroundOutline=1;darkOpacity=0.05;fillColor=#fff2cc;strokeColor=#000000;" parent="mxCrWRpwNnnZa7mIOksv-1" vertex="1">
          <mxGeometry x="40" y="510" width="80" height="100" as="geometry" />
        </mxCell>
      </root>
    </mxGraphModel>
  </diagram>
  <diagram name="verification - ASA review" id="PLccHZmaE8k50bTNSQM5">
    <mxGraphModel dx="3440" dy="1323" grid="1" gridSize="10" guides="1" tooltips="1" connect="1" arrows="1" fold="1" page="0" pageScale="1" pageWidth="850" pageHeight="1100" math="0" shadow="0">
      <root>
        <mxCell id="N4rVf76IOWKvIPr9M-y9-0" />
        <mxCell id="N4rVf76IOWKvIPr9M-y9-1" parent="N4rVf76IOWKvIPr9M-y9-0" />
        <mxCell id="N4rVf76IOWKvIPr9M-y9-2" value="" style="rounded=0;whiteSpace=wrap;html=1;labelBackgroundColor=none;fillColor=#CCE5FF;strokeColor=#000000;strokeWidth=2;" vertex="1" parent="N4rVf76IOWKvIPr9M-y9-1">
          <mxGeometry x="-170" y="430" width="230" height="280" as="geometry" />
        </mxCell>
        <mxCell id="N4rVf76IOWKvIPr9M-y9-5" value="&lt;b&gt;Verification&lt;/b&gt;" style="text;html=1;strokeColor=none;fillColor=none;align=left;verticalAlign=middle;whiteSpace=wrap;rounded=0;labelBackgroundColor=none;spacingLeft=5;" vertex="1" parent="N4rVf76IOWKvIPr9M-y9-1">
          <mxGeometry x="-170" y="430" width="80" height="30" as="geometry" />
        </mxCell>
        <mxCell id="N4rVf76IOWKvIPr9M-y9-13" style="edgeStyle=none;rounded=0;orthogonalLoop=1;jettySize=auto;html=1;exitX=0.5;exitY=1;exitDx=0;exitDy=0;exitPerimeter=0;entryX=0.5;entryY=0;entryDx=0;entryDy=0;strokeColor=#0000FF;strokeWidth=3;entryPerimeter=0;" edge="1" parent="N4rVf76IOWKvIPr9M-y9-1" source="N4rVf76IOWKvIPr9M-y9-14" target="N4rVf76IOWKvIPr9M-y9-20">
          <mxGeometry relative="1" as="geometry" />
        </mxCell>
        <mxCell id="N4rVf76IOWKvIPr9M-y9-14" value="reviewed&lt;br&gt;element&lt;br&gt;design" style="shape=note;whiteSpace=wrap;html=1;backgroundOutline=1;darkOpacity=0.05;fillColor=#d5e8d4;strokeColor=#000000;" vertex="1" parent="N4rVf76IOWKvIPr9M-y9-1">
          <mxGeometry x="-430" y="440" width="80" height="100" as="geometry" />
        </mxCell>
        <mxCell id="N4rVf76IOWKvIPr9M-y9-20" value="attack&lt;br&gt;surface&lt;br&gt;analysis&lt;br&gt;report" style="shape=note;whiteSpace=wrap;html=1;backgroundOutline=1;darkOpacity=0.05;fillColor=#fff2cc;strokeColor=#000000;" vertex="1" parent="N4rVf76IOWKvIPr9M-y9-1">
          <mxGeometry x="-350" y="610" width="80" height="100" as="geometry" />
        </mxCell>
        <mxCell id="N4rVf76IOWKvIPr9M-y9-22" style="edgeStyle=none;rounded=0;orthogonalLoop=1;jettySize=auto;html=1;entryX=0;entryY=0;entryDx=80;entryDy=65;entryPerimeter=0;dashed=1;strokeColor=#FF8000;strokeWidth=3;exitX=0;exitY=0.5;exitDx=0;exitDy=0;exitPerimeter=0;" edge="1" parent="N4rVf76IOWKvIPr9M-y9-1" source="N4rVf76IOWKvIPr9M-y9-24" target="N4rVf76IOWKvIPr9M-y9-20">
          <mxGeometry relative="1" as="geometry" />
        </mxCell>
        <mxCell id="N4rVf76IOWKvIPr9M-y9-23" style="edgeStyle=none;rounded=0;orthogonalLoop=1;jettySize=auto;html=1;exitX=0;exitY=0.5;exitDx=0;exitDy=0;exitPerimeter=0;entryX=0;entryY=0;entryDx=80;entryDy=65;entryPerimeter=0;dashed=1;strokeColor=#FF8000;strokeWidth=3;" edge="1" parent="N4rVf76IOWKvIPr9M-y9-1" source="N4rVf76IOWKvIPr9M-y9-24" target="N4rVf76IOWKvIPr9M-y9-14">
          <mxGeometry relative="1" as="geometry" />
        </mxCell>
        <mxCell id="N4rVf76IOWKvIPr9M-y9-24" value="attack&lt;br&gt;surface&lt;br&gt;analysis&lt;br&gt;review&lt;br&gt;report" style="shape=note;whiteSpace=wrap;html=1;backgroundOutline=1;darkOpacity=0.05;fillColor=#fff2cc;strokeColor=#000000;" vertex="1" parent="N4rVf76IOWKvIPr9M-y9-1">
          <mxGeometry x="-60" y="500" width="80" height="100" as="geometry" />
        </mxCell>
      </root>
    </mxGraphModel>
  </diagram>
  <diagram name="verification - pen testing&#39;" id="Jyh0hEh9HElzJTtlCjJw">
    <mxGraphModel dx="3400" dy="1286" grid="1" gridSize="10" guides="1" tooltips="1" connect="1" arrows="1" fold="1" page="0" pageScale="1" pageWidth="850" pageHeight="1100" math="0" shadow="0">
      <root>
        <mxCell id="2eIWCx3nNkMmW9kikCrz-0" />
        <mxCell id="2eIWCx3nNkMmW9kikCrz-1" parent="2eIWCx3nNkMmW9kikCrz-0" />
        <mxCell id="2eIWCx3nNkMmW9kikCrz-2" value="" style="rounded=0;whiteSpace=wrap;html=1;labelBackgroundColor=none;fillColor=#CCE5FF;strokeColor=#000000;strokeWidth=2;" parent="2eIWCx3nNkMmW9kikCrz-1" vertex="1">
          <mxGeometry x="-170" y="430" width="280" height="550" as="geometry" />
        </mxCell>
        <mxCell id="2eIWCx3nNkMmW9kikCrz-3" style="rounded=0;orthogonalLoop=1;jettySize=auto;html=1;entryX=0.5;entryY=0;entryDx=0;entryDy=0;endArrow=classicThin;endFill=1;strokeColor=#0000FF;strokeWidth=3;entryPerimeter=0;exitX=0.5;exitY=1;exitDx=0;exitDy=0;exitPerimeter=0;" parent="2eIWCx3nNkMmW9kikCrz-1" source="2eIWCx3nNkMmW9kikCrz-4" target="2eIWCx3nNkMmW9kikCrz-7" edge="1">
          <mxGeometry relative="1" as="geometry" />
        </mxCell>
        <mxCell id="2eIWCx3nNkMmW9kikCrz-4" value="element-level&lt;br&gt;cybersecurity&lt;br&gt;requirements" style="shape=note;whiteSpace=wrap;html=1;backgroundOutline=1;darkOpacity=0.05;fillColor=#fff2cc;strokeColor=#000000;" parent="2eIWCx3nNkMmW9kikCrz-1" vertex="1">
          <mxGeometry x="-550" y="440" width="80" height="100" as="geometry" />
        </mxCell>
        <mxCell id="2eIWCx3nNkMmW9kikCrz-5" value="&lt;b&gt;Verification&lt;/b&gt;" style="text;html=1;strokeColor=none;fillColor=none;align=left;verticalAlign=middle;whiteSpace=wrap;rounded=0;labelBackgroundColor=none;spacingLeft=5;" parent="2eIWCx3nNkMmW9kikCrz-1" vertex="1">
          <mxGeometry x="-170" y="430" width="80" height="30" as="geometry" />
        </mxCell>
        <mxCell id="2eIWCx3nNkMmW9kikCrz-6" value="" style="group" parent="2eIWCx3nNkMmW9kikCrz-1" vertex="1" connectable="0">
          <mxGeometry x="-490" y="620" width="80" height="100" as="geometry" />
        </mxCell>
        <mxCell id="2eIWCx3nNkMmW9kikCrz-7" value="element&lt;br&gt;functional&lt;br&gt;requirements&lt;br&gt;&lt;br&gt;&lt;br&gt;" style="shape=note;whiteSpace=wrap;html=1;backgroundOutline=1;darkOpacity=0.05;fillColor=#d5e8d4;strokeColor=#000000;" parent="2eIWCx3nNkMmW9kikCrz-6" vertex="1">
          <mxGeometry width="80" height="100" as="geometry" />
        </mxCell>
        <mxCell id="2eIWCx3nNkMmW9kikCrz-8" value="cybersecurity&lt;br&gt;dependencies" style="rounded=0;whiteSpace=wrap;html=1;fillColor=#fff2cc;strokeColor=#000000;" parent="2eIWCx3nNkMmW9kikCrz-6" vertex="1">
          <mxGeometry y="60" width="80" height="40" as="geometry" />
        </mxCell>
        <mxCell id="2eIWCx3nNkMmW9kikCrz-9" style="edgeStyle=none;rounded=0;orthogonalLoop=1;jettySize=auto;html=1;exitX=1;exitY=1;exitDx=0;exitDy=0;entryX=0.5;entryY=0;entryDx=0;entryDy=0;entryPerimeter=0;strokeColor=#0000FF;strokeWidth=3;" parent="2eIWCx3nNkMmW9kikCrz-1" source="2eIWCx3nNkMmW9kikCrz-11" target="2eIWCx3nNkMmW9kikCrz-14" edge="1">
          <mxGeometry relative="1" as="geometry" />
        </mxCell>
        <mxCell id="2eIWCx3nNkMmW9kikCrz-11" value="requirements&lt;br&gt;gate" style="rhombus;whiteSpace=wrap;html=1;fillColor=default;" parent="2eIWCx3nNkMmW9kikCrz-1" vertex="1">
          <mxGeometry x="-420" y="770" width="110" height="80" as="geometry" />
        </mxCell>
        <mxCell id="2eIWCx3nNkMmW9kikCrz-12" style="rounded=0;orthogonalLoop=1;jettySize=auto;html=1;entryX=0;entryY=0;entryDx=0;entryDy=0;strokeColor=#0000FF;strokeWidth=3;exitX=0.5;exitY=1;exitDx=0;exitDy=0;" parent="2eIWCx3nNkMmW9kikCrz-1" source="2eIWCx3nNkMmW9kikCrz-8" target="2eIWCx3nNkMmW9kikCrz-11" edge="1">
          <mxGeometry relative="1" as="geometry" />
        </mxCell>
        <mxCell id="2eIWCx3nNkMmW9kikCrz-14" value="reviewed&lt;br&gt;element&lt;br&gt;design" style="shape=note;whiteSpace=wrap;html=1;backgroundOutline=1;darkOpacity=0.05;fillColor=#d5e8d4;strokeColor=#000000;" parent="2eIWCx3nNkMmW9kikCrz-1" vertex="1">
          <mxGeometry x="-340" y="880" width="80" height="100" as="geometry" />
        </mxCell>
        <mxCell id="2eIWCx3nNkMmW9kikCrz-28" style="edgeStyle=none;rounded=0;orthogonalLoop=1;jettySize=auto;html=1;entryX=1;entryY=0.5;entryDx=0;entryDy=0;dashed=1;strokeColor=#FF8000;strokeWidth=3;" parent="2eIWCx3nNkMmW9kikCrz-1" source="2eIWCx3nNkMmW9kikCrz-31" target="2eIWCx3nNkMmW9kikCrz-8" edge="1">
          <mxGeometry relative="1" as="geometry" />
        </mxCell>
        <mxCell id="2eIWCx3nNkMmW9kikCrz-29" style="edgeStyle=none;rounded=0;orthogonalLoop=1;jettySize=auto;html=1;exitX=0;exitY=0.5;exitDx=0;exitDy=0;exitPerimeter=0;dashed=1;strokeColor=#FF8000;strokeWidth=3;entryX=0;entryY=0;entryDx=80;entryDy=65;entryPerimeter=0;" parent="2eIWCx3nNkMmW9kikCrz-1" source="2eIWCx3nNkMmW9kikCrz-31" target="2eIWCx3nNkMmW9kikCrz-14" edge="1">
          <mxGeometry relative="1" as="geometry">
            <mxPoint x="-560" y="890" as="targetPoint" />
          </mxGeometry>
        </mxCell>
        <mxCell id="2eIWCx3nNkMmW9kikCrz-30" style="edgeStyle=none;rounded=0;orthogonalLoop=1;jettySize=auto;html=1;exitX=0;exitY=0.5;exitDx=0;exitDy=0;exitPerimeter=0;entryX=0;entryY=0;entryDx=80;entryDy=65;entryPerimeter=0;dashed=1;strokeColor=#FF8000;strokeWidth=3;" parent="2eIWCx3nNkMmW9kikCrz-1" source="2eIWCx3nNkMmW9kikCrz-31" target="2eIWCx3nNkMmW9kikCrz-4" edge="1">
          <mxGeometry relative="1" as="geometry" />
        </mxCell>
        <mxCell id="2eIWCx3nNkMmW9kikCrz-31" value="penetration&lt;br&gt;testing&lt;br&gt;report" style="shape=note;whiteSpace=wrap;html=1;backgroundOutline=1;darkOpacity=0.05;fillColor=#fff2cc;strokeColor=#000000;" parent="2eIWCx3nNkMmW9kikCrz-1" vertex="1">
          <mxGeometry y="620" width="80" height="100" as="geometry" />
        </mxCell>
      </root>
    </mxGraphModel>
  </diagram>
  <diagram id="XyNNDFSGXp3Cgks0TRrl" name="validation">
    <mxGraphModel dx="3400" dy="1686" grid="1" gridSize="10" guides="1" tooltips="1" connect="1" arrows="1" fold="1" page="0" pageScale="1" pageWidth="850" pageHeight="1100" math="0" shadow="0">
      <root>
        <mxCell id="0" />
        <mxCell id="1" parent="0" />
        <mxCell id="7y78Kv6MUkFBznFK1R_4-1" value="" style="rounded=0;whiteSpace=wrap;html=1;labelBackgroundColor=none;fillColor=#E6FFCC;strokeColor=#000000;strokeWidth=2;" parent="1" vertex="1">
          <mxGeometry x="-170" y="110" width="320" height="320" as="geometry" />
        </mxCell>
        <mxCell id="7y78Kv6MUkFBznFK1R_4-2" value="element-level&lt;br&gt;cybersecurity&lt;br&gt;goals" style="shape=note;whiteSpace=wrap;html=1;backgroundOutline=1;darkOpacity=0.05;fillColor=#fff2cc;strokeColor=#000000;" parent="1" vertex="1">
          <mxGeometry x="-430" y="110" width="80" height="100" as="geometry" />
        </mxCell>
        <mxCell id="7y78Kv6MUkFBznFK1R_4-3" value="element-level&lt;br&gt;cybersecurity&lt;br&gt;requirements" style="shape=note;whiteSpace=wrap;html=1;backgroundOutline=1;darkOpacity=0.05;fillColor=#fff2cc;strokeColor=#000000;" parent="1" vertex="1">
          <mxGeometry x="-390" y="270" width="80" height="100" as="geometry" />
        </mxCell>
        <mxCell id="7y78Kv6MUkFBznFK1R_4-4" style="rounded=0;orthogonalLoop=1;jettySize=auto;html=1;entryX=0.5;entryY=0;entryDx=0;entryDy=0;entryPerimeter=0;endArrow=classicThin;endFill=1;strokeColor=#0000FF;strokeWidth=3;exitX=0.5;exitY=1;exitDx=0;exitDy=0;exitPerimeter=0;" parent="1" source="7y78Kv6MUkFBznFK1R_4-2" target="7y78Kv6MUkFBznFK1R_4-3" edge="1">
          <mxGeometry relative="1" as="geometry" />
        </mxCell>
        <mxCell id="7y78Kv6MUkFBznFK1R_4-5" value="&lt;b&gt;Validation&lt;/b&gt;" style="text;html=1;strokeColor=none;fillColor=none;align=left;verticalAlign=middle;whiteSpace=wrap;rounded=0;labelBackgroundColor=none;spacingLeft=5;" parent="1" vertex="1">
          <mxGeometry x="-170" y="400" width="70" height="30" as="geometry" />
        </mxCell>
        <mxCell id="7y78Kv6MUkFBznFK1R_4-7" value="release&lt;br&gt;gate" style="rhombus;whiteSpace=wrap;html=1;fillColor=default;" parent="1" vertex="1">
          <mxGeometry x="15" y="70" width="110" height="80" as="geometry" />
        </mxCell>
        <mxCell id="7y78Kv6MUkFBznFK1R_4-8" style="edgeStyle=none;rounded=0;orthogonalLoop=1;jettySize=auto;html=1;exitX=0.5;exitY=0;exitDx=0;exitDy=0;exitPerimeter=0;entryX=0;entryY=1;entryDx=0;entryDy=0;strokeColor=#0000FF;strokeWidth=3;" parent="1" source="7y78Kv6MUkFBznFK1R_4-11" target="7y78Kv6MUkFBznFK1R_4-7" edge="1">
          <mxGeometry relative="1" as="geometry" />
        </mxCell>
        <mxCell id="7y78Kv6MUkFBznFK1R_4-9" style="edgeStyle=none;rounded=0;orthogonalLoop=1;jettySize=auto;html=1;exitX=0;exitY=0.5;exitDx=0;exitDy=0;exitPerimeter=0;entryX=0;entryY=0;entryDx=80;entryDy=65;entryPerimeter=0;dashed=1;strokeColor=#FF8000;strokeWidth=3;" parent="1" source="7y78Kv6MUkFBznFK1R_4-11" target="7y78Kv6MUkFBznFK1R_4-3" edge="1">
          <mxGeometry relative="1" as="geometry" />
        </mxCell>
        <mxCell id="7y78Kv6MUkFBznFK1R_4-10" style="edgeStyle=none;rounded=0;orthogonalLoop=1;jettySize=auto;html=1;exitX=0;exitY=0.5;exitDx=0;exitDy=0;exitPerimeter=0;entryX=0;entryY=0;entryDx=80;entryDy=65;entryPerimeter=0;dashed=1;strokeColor=#FF8000;strokeWidth=3;" parent="1" source="7y78Kv6MUkFBznFK1R_4-11" target="7y78Kv6MUkFBznFK1R_4-2" edge="1">
          <mxGeometry relative="1" as="geometry" />
        </mxCell>
        <mxCell id="7y78Kv6MUkFBznFK1R_4-11" value="final&lt;br&gt;security&lt;br&gt;review&lt;br&gt;report" style="shape=note;whiteSpace=wrap;html=1;backgroundOutline=1;darkOpacity=0.05;fillColor=#fff2cc;strokeColor=#000000;" parent="1" vertex="1">
          <mxGeometry x="-40" y="240" width="80" height="100" as="geometry" />
        </mxCell>
      </root>
    </mxGraphModel>
  </diagram>
</mxfile>
